<svg width="13" height="13" viewBox="0 0 13 13" fill="none" xmlns="http://www.w3.org/2000/svg">
<g id="Group">
<path id="Vector" d="M6.50647 -0.00341797C10.1141 0.00966934 13.0341 2.93815 12.9997 6.54928C12.9647 10.2132 10.0148 13.0038 6.498 13.0036C2.88148 13.0034 -0.0364164 10.0669 0.000343553 6.44939C0.0374884 2.78572 2.98945 0.0079372 6.50647 -0.00341797ZM8.34235 2.83807C8.1316 2.79111 7.93414 2.75088 7.73879 2.702C7.65815 2.68179 7.62582 2.69853 7.6085 2.78283C7.54383 3.09673 7.46973 3.40891 7.4041 3.72262C7.38774 3.80095 7.36195 3.83193 7.2765 3.80845C7.15929 3.77631 7.03862 3.75687 6.9193 3.73243C6.79862 3.7076 6.79708 3.70645 6.82307 3.58924C6.89254 3.2763 6.96087 2.96297 7.03362 2.6508C7.05132 2.57497 7.03362 2.54187 6.95452 2.52705C6.78457 2.49491 6.6154 2.45661 6.44738 2.41523C6.37117 2.39656 6.33826 2.41504 6.32151 2.49491C6.25242 2.82113 6.17351 3.14504 6.10673 3.47165C6.08864 3.56018 6.05188 3.57019 5.97566 3.55248C5.66022 3.47973 5.34381 3.41044 5.02779 3.34039C4.90077 3.31229 4.77355 3.28515 4.63537 3.25532C4.58244 3.49628 4.53009 3.72377 4.48602 3.9528C4.48217 3.97301 4.52874 4.01862 4.55896 4.0267C4.70119 4.065 4.84707 4.08983 4.9895 4.12774C5.27472 4.20377 5.36903 4.36582 5.30513 4.65201C5.17022 5.25595 5.03665 5.86008 4.9025 6.46402C4.81147 6.87396 4.72121 7.2841 4.62902 7.69384C4.58109 7.90709 4.46543 7.98157 4.24987 7.94135C4.18693 7.92961 4.12477 7.91325 4.06203 7.90016C3.9683 7.88053 3.85109 7.81894 3.78681 7.85397C3.71733 7.89169 3.69404 8.01891 3.65613 8.10937C3.58319 8.28297 3.51409 8.4583 3.4398 8.64133C3.48157 8.65384 3.51082 8.66442 3.54104 8.67135C3.95079 8.76354 4.36015 8.85688 4.77067 8.94561C4.85362 8.96351 4.88249 8.99411 4.86055 9.08148C4.80993 9.28357 4.7674 9.48757 4.72236 9.69101C4.68791 9.84632 4.65481 10.002 4.61939 10.165C4.82783 10.2114 5.02549 10.2513 5.22045 10.3011C5.3034 10.3223 5.33227 10.3021 5.34959 10.2191C5.4183 9.88963 5.49605 9.56206 5.56591 9.23276C5.58112 9.16155 5.60922 9.14442 5.67754 9.16289C5.80437 9.19677 5.93255 9.22737 6.0615 9.25239C6.1431 9.26817 6.16389 9.30204 6.14445 9.38499C6.06785 9.70948 5.99972 10.0359 5.92505 10.3608C5.90965 10.4277 5.91966 10.458 5.99375 10.472C6.17005 10.5053 6.34538 10.5451 6.51956 10.5884C6.59539 10.6073 6.62233 10.5821 6.63792 10.5103C6.70894 10.1812 6.78688 9.85363 6.85636 9.52433C6.8733 9.44408 6.90082 9.42118 6.98512 9.43388C7.3277 9.48604 7.67085 9.51933 8.01921 9.48604C8.61506 9.42887 9.05522 9.15789 9.29426 8.59417C9.42667 8.282 9.50365 7.95828 9.45573 7.61898C9.3978 7.20846 9.13394 6.94729 8.78982 6.75233C8.75749 6.73404 8.72496 6.71653 8.67473 6.68882C8.72361 6.67072 8.7521 6.65975 8.78097 6.64955C8.96226 6.58527 9.12566 6.49212 9.2523 6.34489C9.74288 5.77463 9.64954 4.9228 9.04829 4.4736C8.7827 4.27517 8.4813 4.1493 8.16933 4.0473C8.09696 4.02362 8.08137 3.98975 8.10023 3.92143C8.1241 3.83501 8.14142 3.74667 8.16086 3.6591C8.22052 3.39043 8.2798 3.12156 8.34254 2.83807H8.34235Z" fill="white"/>
<path id="Vector_2" d="M8.34219 2.83798C8.27945 3.12147 8.22017 3.39034 8.16051 3.65901C8.14107 3.74658 8.12375 3.83492 8.09988 3.92134C8.08102 3.98985 8.09661 4.02353 8.16898 4.0472C8.48095 4.14921 8.78235 4.27508 9.04794 4.4735C9.64938 4.92271 9.74272 5.77454 9.25195 6.3448C9.12531 6.49203 8.96191 6.58518 8.78061 6.64946C8.75175 6.65966 8.72307 6.67063 8.67438 6.68872C8.72442 6.71625 8.75713 6.73395 8.78947 6.75224C9.13378 6.9472 9.39745 7.20837 9.45538 7.61888C9.5033 7.95819 9.42632 8.28172 9.29391 8.59408C9.05487 9.1578 8.61471 9.42878 8.01886 9.48594C7.6705 9.51924 7.32735 9.48594 6.98477 9.43379C6.90047 9.42089 6.87295 9.44379 6.85601 9.52424C6.78653 9.85354 6.70859 10.1811 6.63757 10.5102C6.62198 10.582 6.59503 10.6072 6.5192 10.5884C6.34503 10.5451 6.1697 10.5052 5.9934 10.4719C5.91931 10.4579 5.9093 10.4277 5.92469 10.3607C5.99937 10.0358 6.0675 9.70939 6.1441 9.3849C6.16373 9.30195 6.14275 9.26827 6.06115 9.2523C5.9322 9.22728 5.80421 9.19667 5.67719 9.1628C5.60867 9.14452 5.58058 9.16145 5.56556 9.23267C5.4957 9.56196 5.41795 9.88953 5.34924 10.219C5.33192 10.302 5.30305 10.3222 5.2201 10.301C5.02494 10.2512 4.82748 10.2113 4.61904 10.1649C4.65446 10.0019 4.68756 9.84623 4.72201 9.69091C4.76705 9.48748 4.80958 9.28328 4.8602 9.08139C4.88214 8.99382 4.85327 8.96341 4.77032 8.94551C4.3598 8.85679 3.95044 8.76345 3.54069 8.67126C3.51047 8.66452 3.48122 8.65374 3.43945 8.64123C3.51355 8.45801 3.58284 8.28287 3.65578 8.10927C3.69369 8.01882 3.71698 7.89179 3.78646 7.85388C3.85074 7.81885 3.96795 7.88025 4.06168 7.90007C4.12442 7.91335 4.18658 7.92952 4.24952 7.94126C4.46527 7.98167 4.58074 7.907 4.62867 7.69375C4.72085 7.284 4.81112 6.87387 4.90215 6.46393C5.0363 5.85999 5.16987 5.25586 5.30478 4.65192C5.36868 4.36573 5.27437 4.20387 4.98914 4.12765C4.84672 4.08974 4.70084 4.06491 4.55861 4.02661C4.52859 4.01853 4.48182 3.97291 4.48567 3.95271C4.52974 3.72368 4.5819 3.49619 4.63502 3.25523C4.7732 3.28506 4.90042 3.3122 5.02744 3.3403C5.34346 3.41035 5.65987 3.47964 5.97531 3.55239C6.05153 3.5699 6.08829 3.56009 6.10638 3.47156C6.17316 3.14495 6.25226 2.82085 6.32116 2.49482C6.3381 2.41495 6.37082 2.39647 6.44703 2.41514C6.61505 2.45652 6.78403 2.49482 6.95417 2.52696C7.03327 2.54197 7.05097 2.57488 7.03327 2.65071C6.96052 2.96288 6.89219 3.27621 6.82272 3.58915C6.79673 3.70636 6.79827 3.7077 6.91895 3.73234C7.03827 3.75678 7.15894 3.77622 7.27615 3.80836C7.3616 3.83184 7.38739 3.80086 7.40375 3.72252C7.46957 3.40881 7.54348 3.09684 7.60815 2.78274C7.62547 2.69844 7.6578 2.6817 7.73844 2.70191C7.93379 2.75098 8.13125 2.79121 8.342 2.83798H8.34219ZM7.04385 8.51017C7.21014 8.48168 7.38239 8.47168 7.54155 8.42106C8.03329 8.26478 8.17109 7.68009 7.80561 7.31691C7.72497 7.23685 7.62874 7.16756 7.52924 7.11194C7.11968 6.88253 6.6622 6.80651 6.21088 6.7124C6.16258 6.70239 6.14198 6.72144 6.13159 6.76859C6.0267 7.24724 5.92085 7.7257 5.81307 8.20358C5.7994 8.26401 5.81615 8.2925 5.87562 8.30635C6.25938 8.39565 6.64257 8.48842 7.04385 8.51017ZM7.32446 6.18217L7.33004 6.16003C7.41299 6.15195 7.49633 6.14733 7.57851 6.13482C7.99788 6.07131 8.24307 5.73643 8.15512 5.34766C8.10604 5.13018 7.95457 4.99392 7.77193 4.88903C7.43474 4.69503 7.05617 4.63228 6.68203 4.55876C6.66317 4.55511 6.6214 4.58359 6.61678 4.60342C6.51651 5.04088 6.41913 5.47892 6.32578 5.91792C6.32078 5.94121 6.35196 5.99336 6.37332 5.99779C6.68953 6.06265 7.00709 6.12193 7.32427 6.18236L7.32446 6.18217Z" fill="black"/>
<path id="Vector_3" d="M7.04387 8.51058C6.64259 8.48883 6.2594 8.39607 5.87564 8.30677C5.81598 8.29291 5.79942 8.26442 5.81309 8.20399C5.92087 7.72592 6.02672 7.24766 6.13161 6.76901C6.142 6.72166 6.1626 6.7028 6.21091 6.71281C6.66242 6.80692 7.1199 6.88294 7.52926 7.11236C7.62876 7.16798 7.72499 7.23726 7.80563 7.31733C8.17111 7.6805 8.03312 8.26519 7.54158 8.42147C7.38241 8.47209 7.21016 8.4821 7.04387 8.51058Z" fill="white"/>
<path id="Vector_4" d="M7.32519 6.18226C7.00802 6.12183 6.69046 6.06255 6.37424 5.99769C6.35288 5.99327 6.3217 5.94111 6.32671 5.91782C6.42005 5.47882 6.51744 5.04078 6.61771 4.60332C6.62213 4.58369 6.66409 4.55501 6.68295 4.55867C7.05709 4.63219 7.43566 4.69512 7.77285 4.88893C7.95531 4.99401 8.10677 5.13028 8.15604 5.34756C8.244 5.73633 7.9988 6.07121 7.57943 6.13473C7.49725 6.14724 7.32731 6.17457 7.32538 6.18207L7.32519 6.18226Z" fill="white"/>
</g>
</svg>
