<svg width="24" height="22" viewBox="0 0 24 22" fill="none" xmlns="http://www.w3.org/2000/svg">
<path d="M11.8032 19.8854C11.9486 19.8854 12.0978 19.8528 12.2507 19.7874C12.4036 19.7214 12.5272 19.6412 12.6215 19.5469L21.3015 10.8664C21.5813 10.5865 21.7969 10.3007 21.9484 10.009C22.1005 9.71581 22.1766 9.39439 22.1766 9.04476C22.1766 8.69068 22.1005 8.34699 21.9484 8.01369C21.7969 7.67966 21.5813 7.37531 21.3015 7.10066L17.1263 2.92518C16.8509 2.64533 16.5677 2.44008 16.2768 2.30943C15.9865 2.17878 15.6644 2.11346 15.3103 2.11346C14.9607 2.11346 14.636 2.17878 14.3361 2.30943C14.0362 2.44008 13.7534 2.64533 13.4877 2.92518L12.5191 3.89389L14.5788 5.96158C14.7993 6.17834 14.9637 6.42516 15.0721 6.70204C15.1804 6.97892 15.235 7.26025 15.2357 7.54604C15.2357 8.12504 15.0465 8.6042 14.6679 8.98352C14.2879 9.3621 13.8084 9.55139 13.2294 9.55139C12.9436 9.55139 12.6649 9.50796 12.3932 9.42111C12.1208 9.33426 11.8763 9.18209 11.6595 8.96459L9.52961 6.84233L4.72199 11.6491C4.60916 11.762 4.52454 11.89 4.46813 12.0333C4.41172 12.1773 4.38352 12.322 4.38352 12.4675C4.38352 12.7303 4.46776 12.9471 4.63625 13.1178C4.80475 13.2885 5.02038 13.3739 5.28314 13.3739C5.42862 13.3739 5.57781 13.3405 5.73072 13.2737C5.88362 13.2084 6.00721 13.1286 6.10148 13.0343L9.62981 9.50573L10.4181 10.2941L6.89532 13.8237C6.7825 13.9358 6.69788 14.0635 6.64147 14.2068C6.58506 14.3508 6.55685 14.4955 6.55685 14.641C6.55685 14.8889 6.64481 15.1005 6.82073 15.2757C6.9959 15.4516 7.20782 15.5396 7.45647 15.5396C7.60196 15.5396 7.75115 15.5069 7.90406 15.4416C8.05696 15.3763 8.18055 15.2965 8.27482 15.2022L12.0603 11.422L12.8475 12.2103L9.06866 15.9961C8.96994 16.0904 8.88904 16.214 8.82594 16.3669C8.76211 16.5198 8.73019 16.669 8.73019 16.8145C8.73019 17.0624 8.81815 17.274 8.99407 17.4492C9.16924 17.6251 9.38116 17.7131 9.62981 17.7131C9.7753 17.7131 9.92004 17.6849 10.064 17.6284C10.2073 17.572 10.3353 17.4878 10.4482 17.3757L14.2337 13.5955L15.0209 14.3838L11.2353 18.1696C11.1225 18.2824 11.0379 18.4175 10.9815 18.5749C10.9251 18.733 10.8968 18.8777 10.8968 19.0091C10.8968 19.2719 10.9896 19.4838 11.1752 19.6449C11.36 19.806 11.5693 19.8865 11.8032 19.8865M11.7965 21C11.2242 21 10.7343 20.7907 10.3268 20.372C9.91855 19.9526 9.73967 19.4356 9.79014 18.821C9.15922 18.8284 8.63407 18.6398 8.21469 18.2553C7.79457 17.8715 7.59528 17.3356 7.6168 16.6475C6.92873 16.6549 6.38688 16.4582 5.99125 16.0573C5.59488 15.6565 5.41452 15.1287 5.45014 14.474C4.8311 14.4814 4.313 14.307 3.89585 13.9507C3.4787 13.5958 3.27012 13.1015 3.27012 12.4675C3.27012 12.1818 3.32579 11.896 3.43713 11.6102C3.54773 11.3236 3.71103 11.072 3.92702 10.8552L9.52961 5.25899L12.4044 8.13395C12.4986 8.23268 12.6152 8.31396 12.754 8.3778C12.892 8.44089 13.0479 8.47244 13.2216 8.47244C13.4606 8.47244 13.6714 8.3893 13.854 8.22303C14.0366 8.05675 14.1279 7.84037 14.1279 7.57388C14.1279 7.39944 14.0964 7.24281 14.0333 7.104C13.9694 6.96593 13.8885 6.84976 13.7906 6.75548L9.96049 2.92518C9.68437 2.64533 9.39748 2.44008 9.09984 2.30943C8.80293 2.17878 8.47708 2.11346 8.12228 2.11346C7.77268 2.11346 7.45499 2.17878 7.16922 2.30943C6.88419 2.44008 6.60176 2.64533 6.32193 2.92518L2.93277 6.32123C2.69376 6.55877 2.50077 6.8427 2.3538 7.17303C2.20684 7.50336 2.1289 7.84371 2.11999 8.19408C2.11257 8.44572 2.13409 8.68734 2.18457 8.91894C2.23653 9.15128 2.31818 9.36952 2.42951 9.57365L1.58556 10.4165C1.39851 10.1189 1.25229 9.77556 1.14689 9.38659C1.04075 8.99688 0.992127 8.59975 1.00103 8.19519C1.00994 7.68968 1.11126 7.20532 1.30499 6.74212C1.49946 6.27818 1.77707 5.86583 2.13781 5.50507L5.50581 2.13684C5.89402 1.75307 6.30486 1.46728 6.73834 1.27948C7.17182 1.09316 7.64018 1 8.14344 1C8.64817 1 9.1132 1.09353 9.53851 1.28059C9.96457 1.46765 10.3698 1.75307 10.7543 2.13684L11.723 3.10667L12.6939 2.13684C13.0821 1.75307 13.4892 1.46728 13.9153 1.27948C14.3413 1.09316 14.8063 1 15.3103 1C15.8143 1 16.2827 1.09353 16.7154 1.28059C17.1489 1.46765 17.5575 1.75307 17.9413 2.13684L22.0887 6.28449C22.4731 6.66826 22.7693 7.09917 22.9771 7.57722C23.1857 8.05601 23.29 8.54741 23.29 9.05144C23.29 9.55473 23.1861 10.0194 22.9783 10.4455C22.7697 10.8716 22.4731 11.2769 22.0887 11.6614L13.4087 20.3353C13.1778 20.5669 12.9262 20.7354 12.6538 20.8408C12.3821 20.9462 12.0963 20.9989 11.7965 20.9989" fill="#8F8F8F"/>
<path d="M11.8032 19.8854C11.9486 19.8854 12.0978 19.8528 12.2507 19.7874C12.4036 19.7214 12.5272 19.6412 12.6215 19.5469L21.3015 10.8664C21.5813 10.5865 21.7969 10.3007 21.9484 10.009C22.1005 9.71581 22.1766 9.39439 22.1766 9.04476C22.1766 8.69068 22.1005 8.34699 21.9484 8.01369C21.7969 7.67966 21.5813 7.37531 21.3015 7.10066L17.1263 2.92518C16.8509 2.64533 16.5677 2.44008 16.2768 2.30943C15.9865 2.17878 15.6644 2.11346 15.3103 2.11346C14.9607 2.11346 14.636 2.17878 14.3361 2.30943C14.0362 2.44008 13.7534 2.64533 13.4877 2.92518L12.5191 3.89389L14.5788 5.96158C14.7993 6.17834 14.9637 6.42516 15.0721 6.70204C15.1804 6.97892 15.235 7.26025 15.2357 7.54604C15.2357 8.12504 15.0465 8.6042 14.6679 8.98352C14.2879 9.3621 13.8084 9.55139 13.2294 9.55139C12.9436 9.55139 12.6649 9.50796 12.3932 9.42111C12.1208 9.33426 11.8763 9.18209 11.6595 8.96459L9.52961 6.84233L4.72199 11.6491C4.60916 11.762 4.52454 11.89 4.46813 12.0333C4.41172 12.1773 4.38352 12.322 4.38352 12.4675C4.38352 12.7303 4.46776 12.9471 4.63625 13.1178C4.80475 13.2885 5.02038 13.3739 5.28314 13.3739C5.42862 13.3739 5.57781 13.3405 5.73072 13.2737C5.88362 13.2084 6.00721 13.1286 6.10148 13.0343L9.62981 9.50573L10.4181 10.2941L6.89532 13.8237C6.7825 13.9358 6.69788 14.0635 6.64147 14.2068C6.58506 14.3508 6.55685 14.4955 6.55685 14.641C6.55685 14.8889 6.64481 15.1005 6.82073 15.2757C6.9959 15.4516 7.20782 15.5396 7.45647 15.5396C7.60196 15.5396 7.75115 15.5069 7.90406 15.4416C8.05696 15.3763 8.18055 15.2965 8.27482 15.2022L12.0603 11.422L12.8475 12.2103L9.06866 15.9961C8.96994 16.0904 8.88904 16.214 8.82594 16.3669C8.76211 16.5198 8.73019 16.669 8.73019 16.8145C8.73019 17.0624 8.81815 17.274 8.99407 17.4492C9.16924 17.6251 9.38115 17.7131 9.62981 17.7131C9.7753 17.7131 9.92004 17.6849 10.064 17.6284C10.2073 17.572 10.3353 17.4878 10.4482 17.3757L14.2337 13.5955L15.0208 14.3838L11.2353 18.1696C11.1225 18.2824 11.0379 18.4175 10.9815 18.5749C10.9251 18.733 10.8969 18.8777 10.8969 19.0091C10.8969 19.2719 10.9896 19.4838 11.1752 19.6449C11.36 19.806 11.5693 19.8865 11.8032 19.8865M11.7965 21C11.2242 21 10.7343 20.7907 10.3268 20.372C9.91855 19.9526 9.73967 19.4356 9.79014 18.821C9.15922 18.8284 8.63407 18.6398 8.21469 18.2553C7.79457 17.8715 7.59528 17.3356 7.6168 16.6475C6.92873 16.6549 6.38688 16.4582 5.99125 16.0573C5.59488 15.6565 5.41451 15.1287 5.45014 14.474C4.8311 14.4814 4.313 14.307 3.89585 13.9507C3.4787 13.5958 3.27012 13.1015 3.27012 12.4675C3.27012 12.1818 3.32579 11.896 3.43713 11.6102C3.54773 11.3236 3.71103 11.072 3.92702 10.8552L9.52961 5.25899L12.4044 8.13395C12.4986 8.23268 12.6152 8.31396 12.754 8.3778C12.892 8.44089 13.0479 8.47244 13.2216 8.47244C13.4606 8.47244 13.6714 8.3893 13.854 8.22303C14.0366 8.05675 14.1279 7.84037 14.1279 7.57388C14.1279 7.39944 14.0964 7.24281 14.0333 7.104C13.9694 6.96593 13.8885 6.84976 13.7906 6.75548L9.96049 2.92518C9.68437 2.64533 9.39748 2.44008 9.09984 2.30943C8.80293 2.17878 8.47708 2.11346 8.12228 2.11346C7.77268 2.11346 7.45499 2.17878 7.16922 2.30943C6.88419 2.44008 6.60176 2.64533 6.32193 2.92518L2.93277 6.32123C2.69376 6.55877 2.50077 6.8427 2.3538 7.17303C2.20684 7.50336 2.1289 7.84371 2.11999 8.19408C2.11257 8.44572 2.13409 8.68734 2.18457 8.91894C2.23653 9.15128 2.31818 9.36952 2.42951 9.57365L1.58556 10.4165C1.39851 10.1189 1.25229 9.77556 1.14689 9.38659C1.04075 8.99688 0.992127 8.59975 1.00103 8.19519C1.00994 7.68968 1.11126 7.20532 1.30499 6.74212C1.49946 6.27818 1.77707 5.86583 2.13781 5.50507L5.50581 2.13684C5.89402 1.75307 6.30486 1.46728 6.73834 1.27948C7.17182 1.09316 7.64018 1 8.14344 1C8.64817 1 9.1132 1.09353 9.53851 1.28059C9.96457 1.46765 10.3698 1.75307 10.7543 2.13684L11.723 3.10667L12.6939 2.13684C13.0821 1.75307 13.4892 1.46728 13.9153 1.27948C14.3413 1.09316 14.8063 1 15.3103 1C15.8143 1 16.2827 1.09353 16.7154 1.28059C17.1489 1.46765 17.5575 1.75307 17.9413 2.13684L22.0887 6.28449C22.4731 6.66826 22.7693 7.09917 22.9771 7.57722C23.1857 8.05601 23.29 8.54741 23.29 9.05144C23.29 9.55473 23.1861 10.0194 22.9783 10.4455C22.7697 10.8716 22.4731 11.2769 22.0887 11.6614L13.4087 20.3353C13.1778 20.5669 12.9262 20.7354 12.6538 20.8408C12.3821 20.9462 12.0963 20.9989 11.7965 20.9989" stroke="#8F8F8F" stroke-width="0.2"/>
</svg>
