<?xml version="1.0" encoding="utf-8"?>
<!-- Generator: Adobe Illustrator 27.0.0, SVG Export Plug-In . SVG Version: 6.00 Build 0)  -->
<svg version="1.1" id="레이어_1" xmlns="http://www.w3.org/2000/svg" xmlns:xlink="http://www.w3.org/1999/xlink" x="0px"
	 y="0px" viewBox="0 0 1920 571.88" style="enable-background:new 0 0 1920 571.88;" xml:space="preserve">
<style type="text/css">
	.st0{fill:#FFFFFF;}
</style>
<g>
	<path class="st0" d="M697.09,111.91c9.33,8.38,17.58,16.83,24.88,25.34C659.06,24.52,516.87-1.96,408.74,57.94
		C499.52,16.48,616.67,39.68,697.09,111.91z"/>
	<path class="st0" d="M408.74,57.94c-21.75,9.94-42,23.57-59.86,41.15c-39.43,37.46-61.73,83.95-67.51,132.29
		c9.72-46.52,32.01-91.15,67.05-126.68C366.52,85.6,386.94,70.02,408.74,57.94z"/>
	<path class="st0" d="M354.14,435.44c-57.56-55.55-81.03-135.03-72.77-204.06c-22.54,107.9,22.56,225.99,133.14,264.41
		c78.87,27.4,141.57,17.62,186.17-0.78C518.81,520.69,421.86,502.43,354.14,435.44z"/>
	<path class="st0" d="M721.97,137.25c5.87,10.53,11.08,21.78,15.48,33.81c32.51,89.92,8.79,204.01-57.7,269.73
		c0,0-27.37,32.89-79.05,54.21c32.16-10.09,62.31-27.99,88-54.23C688.69,440.77,845.97,281.95,721.97,137.25z"/>
</g>
<path class="st0" d="M323.24,131.47h-12.6h0h-13.75l-5.54,9.98h13.68l-41.73,74.29h-11.7l-5.54,9.98h36.16l1.69-9.69
	C292.63,186.8,303.28,158.03,323.24,131.47z"/>
<polygon class="st0" points="238.96,131.47 233.43,141.45 243.03,141.45 225.72,172.28 189.89,172.28 207.21,141.45 216.84,141.45 
	222.38,131.47 179.73,131.47 174.19,141.45 183.8,141.45 142.08,215.73 132.37,215.73 126.76,225.71 136.48,225.71 159.88,225.71 
	169.37,225.71 174.97,215.73 165.48,215.73 184.17,182.46 220,182.46 201.31,215.73 191.59,215.73 186.06,225.71 195.71,225.71 
	219.11,225.71 228.7,225.71 234.24,215.73 224.72,215.73 266.44,141.45 276.07,141.45 281.61,131.47 "/>
<polygon class="st0" points="131.46,131.47 100.91,131.47 75.72,128.33 56.79,155.84 62.64,159.82 86.57,142.84 102.66,141.45 
	102.77,141.45 60.99,215.73 60.99,215.73 46.69,213.39 45.42,215.73 39.89,225.71 55.38,225.71 77.75,225.71 92.56,225.71 
	98.18,215.73 99.43,213.5 83.39,215.65 124.98,141.45 125.13,141.45 140.39,142.67 143.04,161.91 150.97,161.29 161.98,128.18 "/>
<path class="st0" d="M399.05,106.13l-23.06,6.94h-10.86c-22.35,15.54-69.4,77.32-82.13,112.59l4.4,0v0h11.83l30.71,6.92
	c4.85-9.03,6.12-16.35,21.9-26.24l-4.19-6.52l-26.43,14.97h-24.62c5.55-13.78,13.23-27.47,21.32-39.93h13.37l-1.53,15.76h8.6
	c-1.43-12.47,13.53-31.92,33.1-47.97h-8.78l-26.2,21.33h-11.18c15.32-21.74,30.26-37.93,33.52-41.07h13.21l0.45,0.46l11.51,19.87
	l6.99-4.67C386.54,131.58,390.62,118.99,399.05,106.13z"/>
<path class="st0" d="M702.11,378.03L667,392.97c0.02,4.05-48.63,94.33-167.73,101.96c49.16,1.19,99.62-14.94,99.62-14.94
	C669.4,443.12,682.25,409.39,702.11,378.03z"/>
<path class="st0" d="M1588.39,376.08c-6.2,0-12.36-0.42-18.31-1.25c-14.37-2-39.36-8.33-45.27-28.18
	c-6.21-20.84,6.08-38.46,17.48-49.57c27.76-27.04,62.19-47.35,92.09-54.33c14.34-3.35,27.6-5.05,39.41-5.05
	c13.26,0,25.01,2.13,34.93,6.35c19.5,8.28,29.85,29,23.56,47.16l-0.13,0.38c-4.32,12.23-11.86,21.54-14.9,24.98
	c-13.65,15.43-31.54,29.12-51.74,39.57c-21.57,11.16-44.61,17.92-66.63,19.54C1595.37,375.95,1591.84,376.08,1588.39,376.08
	C1588.39,376.08,1588.39,376.08,1588.39,376.08z M1663.1,244.4c-6.31,0-13.45,2.31-21.23,6.87c-45.01,26.39-61.45,55.48-67.3,75.24
	c-3.15,10.62-3.99,24.93,3.1,33.25c4.33,5.09,10.38,8.3,17.02,9.05c0.95,0.11,1.92,0.16,2.89,0.16c3.7,0,7.45-0.81,10.84-2.35
	c0.84-0.38,1.69-0.79,2.52-1.19c12.09-5.95,25.03-15.65,38.46-28.84c13.1-12.86,23.15-27.02,29.86-42.09
	c6.85-15.37,12.15-32.63-0.48-44.03c-3.73-3.38-8.09-5.37-12.93-5.91C1664.97,244.45,1664.04,244.4,1663.1,244.4z"/>
<path class="st0" d="M1482.79,237.7c-41.27,0-94.47,43.54-94.47,43.54l38.43-54.21l22.55-31.8c2.09-5.26-2-8.33-5.4-8.33
	l-106.06,38.24l1.58,5.47l47.37-16.97c0,0-0.58,0.86-3.18,4.51c-1.09,1.56-3.31,4.69-6.28,8.87
	c-16.79,23.67-57.83,81.26-57.83,81.26c-10.94,15.87-30.64,31.47-46.82,39.9c-12.88,6.71-24.56,11.64-34.72,14.63l-1.09,0.32
	l60.89-85.52c7.12-10.7,13.14-19.1,9.99-25.93c-1.81-3.93-10.08-11.4-29.48-6.58c-28.68,7.11-67.26,36.87-67.26,36.87
	c8.67-12.26,14.62-26.02,11.88-31.03c-2.34-4.27-8.32-6.44-17.8-6.44c-1.62,0-3.36,0.06-5.18,0.19
	c-12.48,0.86-25.21,7.95-40.03,16.5c-12.17,7.02-32.1,21.29-32.1,21.29s21.73-30.5,23.19-32.66c2.43-3.59,2.01-6.13,0.95-8.15
	c-1.42-2.72-4.94-3.97-9.03-3.97c-7.27,0-12.91,1.15-14.63,1.51c-17.38,3.68-88.15,39.36-88.15,39.36s16.45-17.85,7.05-31.92
	c-1.84-2.76-5.95-6.27-12.16-6.27c-4.56,0-7.97,1.3-15.18,3.9l-54.48,20.52c-1.36,1.85-18.52,25.05-42.95,49.59
	c-14.89,14.96-25.25,23.78-39.22,33.53c-17.49,12.2-56.43,26.27-64.64,16.67c-5.75-6.72-0.54-13.13,11.34-28.39
	c30.53-39.23,68.11-71.82,82.53-85.49c4.03-3.82,3.31-13-5.93-13.04c-20.43-0.08-103.71,37.37-103.71,37.37l1.65,5.5
	c0,0,31.06-13.65,36.68-14.55c0.59-0.1,1.43,0.64,1.67,1.26c0.52,1.38-0.63,2.42-0.77,2.56c-4.99,4.74-23.46,20.2-39.16,39.57
	c-15.12,18.66-29.6,36.2-20.71,53.14c3.87,7.36,12.22,15.62,48.04,13.55c30.57-1.77,56.99-13.68,94.32-32.26
	c38.2-19.02,67.33-39.39,81.3-49.84c0.29-0.22,0.61-0.33,0.94-0.33c0.54,0,1.06,0.32,1.3,0.81c0.25,0.5-0.17,1.55-0.17,1.55
	s-59.04,95.31-136.11,132.08c-94.82,45.24-149.79,26.34-149.79,26.34c-10.36,14.04-32.76,28.8-52.6,42.31c0,0,98.14,22.26,196-36.08
	c77.92-46.45,168.08-172.34,168.08-172.34l51.3-26.62c3.29-0.93,7.39,2.89,4.83,6.5l-71.93,101.09h48.6l57.96-81.23
	c0,0,34.64-17.17,37.4-17.66c3.56-0.63,7.04,3.17,4.49,6.77l-66.26,92.12h49.1l58.14-81.17c0,0,38.94-26.15,42.68-15
	c1.11,3.31-0.9,4.41-3.5,8.39l-59.93,84.71c3.63,6.67,12.25,8.53,23.84,9.86c50.2,5.79,217.12-115.08,243.63-115.08
	c16.18,0,21.77,9.04,23.25,23.07c1.57,14.9-9.61,29.67-23.11,41.76c-15.78,14.15-61.44,35.43-78.42,36.09
	c-35.76,1.41-27.6-23.87-27.6-23.87l-26.49,16.49c0,0-24.55,21.54,30.89,21.54c0.14,0,0.29,0,0.43,0c21.4,0,42.68-3.36,62.99-10.1
	c35.99-11.94,87.46-35.53,104.99-76.23C1529.52,262.77,1509.41,237.7,1482.79,237.7z"/>
<path class="st0" d="M1872.39,186.9l-109.9,38.24l1.58,5.47l47.37-16.97c0,0-0.58,0.86-3.18,4.51
	c-0.56,0.8-89.19,125.48-89.19,125.48l-17.07,24.12c-2.09,5.26,2,8.33,5.4,8.33l109.9-38.24l-1.58-5.47l-47.37,16.97
	c0,0,0.58-0.86,3.18-4.51c1.09-1.56,3.31-4.69,6.28-8.87l99.98-140.72C1879.88,189.97,1875.78,186.9,1872.39,186.9z"/>
<g>
	<path class="st0" d="M534.69,244.54C502.95,255.49,460,283.85,460,283.85c198.07-80.67,137.02,101.6,4.39,113.92
		c-98.36,13.74-81.82-35.97-70.41-41.81c15.94-8.16,43.71-25.69,27.71-47.46c-22.4-30.48-72.78,9.04-67.92,48.02
		c10.43,83.79,284,66.86,300.94-53.07C661.62,254.61,595.06,223.7,534.69,244.54z"/>
	<path class="st0" d="M534.69,244.54C502.95,255.49,460,283.85,460,283.85c198.07-80.67,137.02,101.6,4.39,113.92
		c-98.36,13.74-81.82-35.97-70.41-41.81c15.94-8.16,43.71-25.69,27.71-47.46c-22.4-30.48-72.78,9.04-67.92,48.02
		c10.43,83.79,284,66.86,300.94-53.07C661.62,254.61,595.06,223.7,534.69,244.54z"/>
</g>
<path class="st0" d="M569.13,213.87l65.13-3.01l37.98-50.97c-9.33-15.02-56.54-47.67-158.75-45.36c0,0-129.72,60.45-151.4,131.24
	l68.49,36.73l40.69-26.55l19.29-12.58l-4.79-7.05l-40.83,21.95c-185.98-32.83,188.14-199.27,137.28-72.46L569.13,213.87z"/>
</svg>
