<svg width="185" height="46" viewBox="0 0 185 46" fill="none" xmlns="http://www.w3.org/2000/svg">
<path d="M53.4134 42.1475L34.8828 42.1475" stroke="white" stroke-width="2.18007"/>
<path d="M5.43579 18.9802L1.98387 19.0198L2.04338 18.266L3.76935 18.0477L5.63418 5.94616L3.92806 5.98584L1.98387 9.29889H1.21016L1.78548 5.0931L7.61805 5.13277L13.2522 5.0931L12.6372 9.29889H11.8635L10.8914 5.98584L9.20514 5.94616L7.32047 18.0477L9.00675 18.266L8.82821 19.0198L5.43579 18.9802ZM23.5177 17.1352L20.4823 19.3174L18.2406 18.4445L19.3317 12.2747C19.4309 11.7192 19.2127 11.3621 18.7762 11.3621C18.4191 11.3621 18.0223 11.5605 17.6454 11.7986L17.0899 12.1358L15.8798 19H12.7056L14.9473 6.24374L13.2611 6.66035L13.0627 6.10487L17.4867 4.83519L18.2802 5.45019L17.2883 11.0645L17.0899 11.4613L20.403 9.14018C22.248 9.14018 22.9423 9.97341 22.6051 11.8779L21.5338 17.7898L23.2002 16.6987L23.5177 17.1352ZM32.5103 11.5407C32.5103 12.1557 32.4309 12.5524 32.2127 13.1674L27.2531 14.6157C27.5308 15.806 28.2847 16.8177 29.2964 17.274C30.1297 16.8971 31.1811 16.4011 31.8556 16.0242L32.173 16.4607C31.2406 17.0756 30.1693 17.6708 29.1972 18.1866L27.2332 19.2976C25.2692 18.9603 23.94 17.4129 23.94 15.4687C23.94 13.0087 25.3089 11.1042 27.6697 10.1916L30.4669 9.14018C31.6969 9.35841 32.5103 10.3107 32.5103 11.5407ZM27.1737 14.0999L28.979 13.4253C29.1377 12.9095 29.1576 12.5128 29.1576 12.0565C29.1576 11.3026 28.8005 10.6082 28.3442 10.4495C27.5705 11.0249 27.1539 12.1953 27.1539 13.7031C27.1539 13.8419 27.1539 13.961 27.1737 14.0999Z" fill="white"/>
<path d="M51.3437 34.3279L46.5565 36.0604C42.2252 36.0604 38.5778 34.9662 36.2526 33.3249L38.2131 24.6623H40.5383L40.7207 29.8598C42.6355 31.7291 46.1918 33.1425 49.3376 33.1425C50.8878 32.2306 51.754 30.7261 51.754 28.9936C51.754 26.8051 50.2495 25.3918 48.7449 24.1152L44.2769 20.4222C41.4957 18.0514 39.4897 15.8174 39.4897 12.6715C39.4897 8.88732 41.9973 6.42532 47.2404 4.19129L51.2981 2.50437C55.8118 2.50437 59.0488 3.50741 61.0549 4.784L59.368 12.8995H57.3163L56.1765 7.61073C54.0792 5.83262 52.1188 4.96637 49.3832 4.87518C47.286 5.69585 46.5109 6.97243 46.5109 8.47698C46.5109 10.1183 47.5595 11.1213 49.6112 12.8995L54.5352 17.0484C57.1339 19.2368 58.912 21.2429 58.912 25.1638C58.912 28.8568 56.0853 32.5954 51.3437 34.3279ZM66.4081 45.954H59.5692L60.709 39.1607H67.1376L72.1983 33.7808L65.8154 35.1486L62.8975 16.2733L59.4324 17.3675L58.9765 16.2277L68.0038 12.5803L70.2378 14.176L72.8822 32.4586L79.5843 20.9237L75.0706 16.1821L80.8153 12.5803L82.9125 14.4952L81.9095 21.0605L74.25 34.0543L66.4081 45.954ZM121.287 30.9996L114.312 35.9692L109.069 34.0088L111.531 19.7839C111.759 18.4617 111.394 17.7778 110.482 17.7778C109.844 17.7778 109.069 18.2338 108.43 18.6897L106.835 19.7383L104.054 35.2397H96.7132L99.4943 19.6927C99.6767 18.4161 99.3119 17.6867 98.4001 17.6867C97.7618 17.6867 97.0323 18.1426 96.394 18.5985L94.7527 19.6471L92.0171 35.2397H84.6768L88.005 16.3645L84.5856 17.4587L84.1296 16.2733L93.7041 12.6259L95.6645 14.3584L95.163 17.2307L94.7527 18.097L102.047 12.5803C105.877 12.5803 107.519 14.2216 107.108 17.9146L114.129 12.5803C118.278 12.5803 119.829 14.4952 119.053 18.8721L116.637 32.641L120.512 29.9966L121.287 30.9996ZM136.774 33.416L131.258 35.9236C128.34 35.878 125.239 35.0574 122.96 33.4616L127.838 6.01499L123.872 6.88125L123.416 5.60466L133.628 2.68674L135.452 4.10011L133.264 16.6836L132.671 17.9146L140.285 12.5803C143.522 13.6289 145.437 16.4101 145.437 20.6958C145.437 26.1669 142.017 31.0908 136.774 33.416ZM134.677 32.7322C136.957 30.8629 137.732 26.8507 137.732 24.024C137.732 21.1061 137.185 18.7809 135.771 17.5955L132.808 19.1912L130.665 31.2732C131.486 31.9571 133.264 32.7322 134.677 32.7322ZM160.314 34.2367L156.529 35.9236C151.241 35.9236 147.001 32.9145 147.001 26.9875C147.001 21.6076 150.055 17.1851 156.256 14.3128L160.04 12.5803C165.329 12.5803 169.569 15.7262 169.569 21.6076C169.569 27.0331 166.605 31.5012 160.314 34.2367ZM158.672 33.3249C160.815 31.6379 161.909 27.4434 161.909 23.4769C161.909 18.6897 160.268 15.9997 157.852 15.2703C155.709 16.9116 154.66 21.1061 154.66 25.0726C154.66 29.8598 156.301 32.5498 158.672 33.3249ZM183.095 30.9541L176.119 35.9692L170.922 33.9632L175.8 6.01499L171.925 6.88125L171.514 5.60466L181.681 2.68674L183.505 4.10011L178.49 32.5042L182.32 29.951L183.095 30.9541Z" fill="white"/>
<path d="M182.4 42.1475H76.3027" stroke="white" stroke-width="2.18007"/>
</svg>
