<svg width="218" height="53" viewBox="0 0 218 53" fill="none" xmlns="http://www.w3.org/2000/svg">
<path d="M64.4134 47.1475L45.8828 47.1475" stroke="white" stroke-width="2.18007"/>
<path d="M16.4358 23.9802L12.9839 24.0198L13.0434 23.266L14.7693 23.0477L16.6342 10.9462L14.9281 10.9858L12.9839 14.2989H12.2102L12.7855 10.0931L18.618 10.1328L24.2522 10.0931L23.6372 14.2989H22.8635L21.8914 10.9858L20.2051 10.9462L18.3205 23.0477L20.0068 23.266L19.8282 24.0198L16.4358 23.9802ZM34.5177 22.1352L31.4823 24.3174L29.2406 23.4445L30.3317 17.2747C30.4309 16.7192 30.2127 16.3621 29.7762 16.3621C29.4191 16.3621 29.0223 16.5605 28.6454 16.7986L28.0899 17.1358L26.8798 24H23.7056L25.9473 11.2437L24.2611 11.6604L24.0627 11.1049L28.4867 9.83519L29.2802 10.4502L28.2883 16.0645L28.0899 16.4613L31.403 14.1402C33.248 14.1402 33.9423 14.9734 33.6051 16.8779L32.5338 22.7898L34.2002 21.6987L34.5177 22.1352ZM43.5103 16.5407C43.5103 17.1557 43.4309 17.5524 43.2127 18.1674L38.2531 19.6157C38.5308 20.806 39.2847 21.8177 40.2964 22.274C41.1297 21.8971 42.1811 21.4011 42.8556 21.0242L43.173 21.4607C42.2406 22.0756 41.1693 22.6708 40.1972 23.1866L38.2332 24.2976C36.2692 23.9603 34.94 22.4129 34.94 20.4687C34.94 18.0087 36.3089 16.1042 38.6697 15.1916L41.4669 14.1402C42.6969 14.3584 43.5103 15.3107 43.5103 16.5407ZM38.1737 19.0999L39.979 18.4253C40.1377 17.9095 40.1576 17.5128 40.1576 17.0565C40.1576 16.3026 39.8005 15.6082 39.3442 15.4495C38.5705 16.0249 38.1539 17.1953 38.1539 18.7031C38.1539 18.8419 38.1539 18.961 38.1737 19.0999Z" fill="white"/>
<path d="M62.3437 39.3279L57.5565 41.0604C53.2252 41.0604 49.5778 39.9662 47.2526 38.3249L49.2131 29.6623H51.5383L51.7207 34.8598C53.6355 36.7291 57.1918 38.1425 60.3376 38.1425C61.8878 37.2306 62.754 35.7261 62.754 33.9936C62.754 31.8051 61.2495 30.3918 59.7449 29.1152L55.2769 25.4222C52.4957 23.0514 50.4897 20.8174 50.4897 17.6715C50.4897 13.8873 52.9973 11.4253 58.2404 9.19129L62.2981 7.50437C66.8118 7.50437 70.0488 8.50741 72.0549 9.784L70.368 17.8995H68.3163L67.1765 12.6107C65.0792 10.8326 63.1188 9.96637 60.3832 9.87518C58.286 10.6958 57.5109 11.9724 57.5109 13.477C57.5109 15.1183 58.5595 16.1213 60.6112 17.8995L65.5352 22.0484C68.1339 24.2368 69.912 26.2429 69.912 30.1638C69.912 33.8568 67.0853 37.5954 62.3437 39.3279ZM77.4081 50.954H70.5692L71.709 44.1607H78.1376L83.1983 38.7808L76.8154 40.1486L73.8975 21.2733L70.4324 22.3675L69.9765 21.2277L79.0038 17.5803L81.2378 19.176L83.8822 37.4586L90.5843 25.9237L86.0706 21.1821L91.8153 17.5803L93.9125 19.4952L92.9095 26.0605L85.25 39.0543L77.4081 50.954ZM132.287 35.9996L125.312 40.9692L120.069 39.0088L122.531 24.7839C122.759 23.4617 122.394 22.7778 121.482 22.7778C120.844 22.7778 120.069 23.2338 119.43 23.6897L117.835 24.7383L115.054 40.2397H107.713L110.494 24.6927C110.677 23.4161 110.312 22.6867 109.4 22.6867C108.762 22.6867 108.032 23.1426 107.394 23.5985L105.753 24.6471L103.017 40.2397H95.6768L99.005 21.3645L95.5856 22.4587L95.1296 21.2733L104.704 17.6259L106.665 19.3584L106.163 22.2307L105.753 23.097L113.047 17.5803C116.877 17.5803 118.519 19.2216 118.108 22.9146L125.129 17.5803C129.278 17.5803 130.829 19.4952 130.053 23.8721L127.637 37.641L131.512 34.9966L132.287 35.9996ZM147.774 38.416L142.258 40.9236C139.34 40.878 136.239 40.0574 133.96 38.4616L138.838 11.015L134.872 11.8812L134.416 10.6047L144.628 7.68674L146.452 9.10011L144.264 21.6836L143.671 22.9146L151.285 17.5803C154.522 18.6289 156.437 21.4101 156.437 25.6958C156.437 31.1669 153.017 36.0908 147.774 38.416ZM145.677 37.7322C147.957 35.8629 148.732 31.8507 148.732 29.024C148.732 26.1061 148.185 23.7809 146.771 22.5955L143.808 24.1912L141.665 36.2732C142.486 36.9571 144.264 37.7322 145.677 37.7322ZM171.314 39.2367L167.529 40.9236C162.241 40.9236 158.001 37.9145 158.001 31.9875C158.001 26.6076 161.055 22.1851 167.256 19.3128L171.04 17.5803C176.329 17.5803 180.569 20.7262 180.569 26.6076C180.569 32.0331 177.605 36.5012 171.314 39.2367ZM169.672 38.3249C171.815 36.6379 172.909 32.4434 172.909 28.4769C172.909 23.6897 171.268 20.9997 168.852 20.2703C166.709 21.9116 165.66 26.1061 165.66 30.0726C165.66 34.8598 167.301 37.5498 169.672 38.3249ZM194.095 35.9541L187.119 40.9692L181.922 38.9632L186.8 11.015L182.925 11.8812L182.514 10.6047L192.681 7.68674L194.505 9.10011L189.49 37.5042L193.32 34.951L194.095 35.9541Z" fill="white"/>
<path d="M193.4 47.1475H87.3027" stroke="white" stroke-width="2.18007"/>
</svg>
